<svg width="94" height="94" viewBox="0 0 94 94" fill="none" xmlns="http://www.w3.org/2000/svg">
<rect width="94" height="94" fill="#6835F2"/>
<g clip-path="url(#clip0_824_328)">
<path d="M41.5846 53.7013C41.8779 53.7013 42.1035 53.848 42.2614 54.1412C42.4419 54.412 42.5322 54.7616 42.5322 55.1903C42.5322 55.7092 42.4532 56.1152 42.2953 56.4085C42.1374 56.7018 41.8892 56.9612 41.5508 57.1868C40.2198 58.0667 38.0991 59.5105 35.1889 61.5184C34.309 66.1883 33.1698 69.8656 31.771 72.5502C30.3723 75.2348 28.6014 76.5772 26.4582 76.5772C25.3076 76.5772 24.3714 76.2162 23.6494 75.4943C22.9275 74.7949 22.5666 73.87 22.5666 72.7194C22.5666 71.6591 22.8034 70.5875 23.2772 69.5046C23.751 68.4217 24.6308 67.1696 25.9167 65.7484C27.2252 64.3271 29.0638 62.7028 31.4326 60.8754L31.5342 60.2324C29.7519 60.9769 28.0035 61.3492 26.289 61.3492C23.7622 61.3492 21.5401 60.8641 19.6225 59.894C17.7049 58.9014 16.2159 57.5027 15.1556 55.6979C14.0953 53.8931 13.5651 51.795 13.5651 49.4036C13.5651 46.0648 14.1968 43.1207 15.4602 40.5714C16.7235 37.9996 18.4606 36.0143 20.6715 34.6156C22.905 33.1943 25.3978 32.4836 28.1502 32.4836C30.7897 32.4836 32.7637 33.104 34.0722 34.3448C35.4032 35.5631 36.0687 37.1874 36.0687 39.2178C36.0687 40.5488 35.8206 41.6204 35.3242 42.4326C34.8505 43.2222 34.1624 43.617 33.26 43.617C32.6509 43.617 32.1546 43.4704 31.771 43.1771C31.4101 42.8838 31.2296 42.4777 31.2296 41.9588C31.2296 41.7332 31.2747 41.3497 31.365 40.8083C31.5003 40.1766 31.568 39.6803 31.568 39.3193C31.568 38.3718 31.2747 37.6386 30.6882 37.1197C30.1242 36.6008 29.1654 36.3414 27.8118 36.3414C26.1649 36.3414 24.6308 36.8152 23.2095 37.7627C21.8108 38.7102 20.6828 40.1315 19.8255 42.0265C18.9682 43.899 18.5396 46.155 18.5396 48.7945C18.5396 51.5017 19.2728 53.5998 20.7392 55.0888C22.2282 56.5552 24.3714 57.2884 27.1688 57.2884C28.7254 57.2884 30.3498 56.9387 32.0418 56.2393L32.5155 52.1108H29.0638C28.4322 52.1108 27.9471 51.9642 27.6087 51.6709C27.2703 51.3551 27.1011 50.8475 27.1011 50.1481C27.1011 49.5164 27.2703 49.0201 27.6087 48.6592C27.9471 48.2982 28.3983 48.1177 28.9623 48.1177H35.2904C35.7867 48.1177 36.1928 48.2869 36.5086 48.6253C36.847 48.9412 36.9824 49.4036 36.9147 50.0128C36.847 50.7347 36.6214 52.3703 36.2379 54.9196L35.8657 57.4914C37.6705 56.1378 39.3174 54.9647 40.8063 53.972C41.0996 53.7916 41.359 53.7013 41.5846 53.7013ZM26.8304 73.2947C27.417 73.2947 28.0599 72.6292 28.7593 71.2981C29.4586 69.9671 30.1129 67.8239 30.722 64.8685C29.0074 66.3349 27.7666 67.6547 26.9996 68.8278C26.2551 70.0235 25.8829 71.0725 25.8829 71.9749C25.8829 72.8548 26.1987 73.2947 26.8304 73.2947ZM42.4917 61.3492C41.6344 61.3492 41.0252 60.898 40.6643 59.9956C40.3259 59.0932 40.1567 57.6493 40.1567 55.664C40.1567 52.7312 40.574 49.9451 41.4088 47.3056C41.6118 46.6513 41.9389 46.1776 42.3901 45.8843C42.8639 45.5684 43.5181 45.4105 44.3528 45.4105C44.804 45.4105 45.1199 45.4669 45.3004 45.5797C45.4808 45.6925 45.5711 45.9068 45.5711 46.2227C45.5711 46.5836 45.4019 47.3958 45.0635 48.6592C44.8379 49.5616 44.6574 50.3512 44.522 51.028C44.3867 51.7048 44.2739 52.5395 44.1836 53.5321C44.9281 51.592 45.7629 50.0128 46.6878 48.7945C47.6128 47.5763 48.5152 46.7077 49.395 46.1888C50.2974 45.67 51.1209 45.4105 51.8653 45.4105C53.3317 45.4105 54.0649 46.1437 54.0649 47.6101C54.0649 47.9034 53.9634 48.614 53.7604 49.742C53.5799 50.6444 53.4897 51.2084 53.4897 51.434C53.4897 52.2236 53.7717 52.6184 54.3357 52.6184C54.9673 52.6184 55.7795 52.1221 56.7721 51.1295C57.0654 50.8362 57.37 50.6896 57.6858 50.6896C57.9791 50.6896 58.2047 50.8249 58.3626 51.0956C58.5431 51.3438 58.6333 51.6822 58.6333 52.1108C58.6333 52.9456 58.4077 53.5998 57.9565 54.0736C57.3248 54.7278 56.5804 55.2918 55.7231 55.7656C54.8884 56.2168 53.9973 56.4424 53.0497 56.4424C51.8541 56.4424 50.9404 56.1378 50.3087 55.5287C49.6996 54.9196 49.395 54.0961 49.395 53.0584C49.395 52.72 49.4288 52.3816 49.4965 52.0432C49.5416 51.592 49.5642 51.2874 49.5642 51.1295C49.5642 50.7685 49.4401 50.588 49.192 50.588C48.8536 50.588 48.4024 50.9716 47.8384 51.7386C47.2969 52.4831 46.7555 53.4757 46.214 54.7165C45.6726 55.9573 45.2327 57.2658 44.8943 58.642C44.6461 59.7023 44.3528 60.4242 44.0144 60.8077C43.6986 61.1687 43.191 61.3492 42.4917 61.3492ZM72.7472 50.7911C73.0405 50.7911 73.2661 50.9377 73.424 51.231C73.582 51.5243 73.6609 51.8965 73.6609 52.3477C73.6609 53.4306 73.3338 54.0736 72.6796 54.2766C71.326 54.7504 69.837 55.0211 68.2127 55.0888C67.784 56.9838 66.938 58.5066 65.6747 59.6572C64.4113 60.7852 62.9788 61.3492 61.377 61.3492C60.0234 61.3492 58.8616 61.022 57.8915 60.3678C56.944 59.7136 56.222 58.845 55.7257 57.7621C55.2294 56.6792 54.9812 55.5061 54.9812 54.2428C54.9812 52.5282 55.3084 51.0054 55.9626 49.6744C56.6168 48.3208 57.5192 47.2717 58.6698 46.5272C59.8204 45.7602 61.095 45.3767 62.4937 45.3767C64.2083 45.3767 65.5844 45.9745 66.6222 47.1702C67.6825 48.3433 68.3029 49.7984 68.4834 51.5356C69.5437 51.4679 70.8071 51.2423 72.2735 50.8588C72.454 50.8136 72.6119 50.7911 72.7472 50.7911ZM61.6477 57.7621C62.3696 57.7621 62.99 57.4688 63.5089 56.8823C64.0504 56.2957 64.4113 55.4497 64.5918 54.3443C63.8924 53.8705 63.351 53.2501 62.9675 52.4831C62.6065 51.716 62.426 50.9039 62.426 50.0466C62.426 49.6856 62.4599 49.3247 62.5276 48.9637H62.3584C61.456 48.9637 60.7002 49.4036 60.0911 50.2835C59.5045 51.1408 59.2112 52.359 59.2112 53.9382C59.2112 55.179 59.4481 56.1265 59.9219 56.7808C60.4182 57.435 60.9935 57.7621 61.6477 57.7621ZM91.3572 45.3767C92.598 45.3767 93.2184 45.7715 93.2184 46.5611C93.2184 46.8318 93.1281 47.204 92.9477 47.6778C91.1203 51.9416 89.3945 55.382 87.7701 57.999C86.958 59.2849 86.2248 60.1648 85.5705 60.6385C84.9163 61.1123 84.1718 61.3492 83.3371 61.3492C82.4347 61.3492 81.7579 60.9995 81.3067 60.3001C80.8781 59.6008 80.6073 58.4502 80.4945 56.8484C80.4494 56.2619 80.4043 55.382 80.3592 54.2089C79.6598 56.1491 79.0169 57.638 78.4303 58.6758C77.8663 59.691 77.3023 60.3904 76.7383 60.7739C76.1969 61.1574 75.5426 61.3492 74.7756 61.3492C73.8506 61.3492 73.1174 60.9882 72.576 60.2663C72.0571 59.5444 71.73 58.4051 71.5946 56.8484C71.3239 53.69 71.1885 50.9264 71.1885 48.5576V47.3732C71.2111 46.6062 71.4029 46.0873 71.7638 45.8166C72.1248 45.5233 72.7113 45.3767 73.5235 45.3767C74.1101 45.3767 74.5387 45.512 74.8094 45.7828C75.1027 46.0309 75.2493 46.4596 75.2493 47.0687C75.2493 49.6631 75.4073 53.0358 75.7231 57.1868C76.4676 55.6076 77.1557 54.0961 77.7873 52.6523C78.419 51.2084 79.1522 49.3585 79.9869 47.1025C80.2351 46.4257 80.5284 45.9745 80.8668 45.7489C81.2277 45.5008 81.6451 45.3767 82.1189 45.3767C82.7505 45.3767 83.2243 45.512 83.5401 45.7828C83.856 46.0309 84.0139 46.4596 84.0139 47.0687V52.3139C84.0139 54.5699 84.0252 56.1942 84.0477 57.1868C85.0855 55.382 85.9315 53.8141 86.5857 52.4831C87.2625 51.152 88.0183 49.3585 88.853 47.1025C89.1012 46.4257 89.4283 45.9745 89.8344 45.7489C90.2405 45.5008 90.7481 45.3767 91.3572 45.3767Z" fill="#F8FBFF"/>
<g filter="url(#filter0_d_824_328)">
<path d="M15.7047 61.7153C12.619 61.7718 10.8381 61.376 10.8097 56.524C10.8456 62.634 8.49026 61.7078 3.79034 61.7353C8.49026 61.7078 9.43001 61.7022 10.8675 66.3939C11.9463 62.7199 13.0421 61.9078 15.7047 61.7153ZM15.7047 61.7153C16.5047 61.7006 17.3925 61.6556 18.3601 61.65C17.3278 61.656 16.4542 61.6611 15.7047 61.7153Z" stroke="#368CF5" stroke-width="0.5"/>
</g>
<g filter="url(#filter1_d_824_328)">
<path d="M30.7447 26.9354C27.6591 26.9919 25.8781 26.5961 25.8497 21.7441C25.8856 27.854 23.5303 26.9279 18.8304 26.9554C23.5303 26.9279 24.47 26.9223 25.9075 31.614C26.9863 27.94 28.0821 27.1279 30.7447 26.9354ZM30.7447 26.9354C31.5447 26.9207 32.4325 26.8757 33.4001 26.8701C32.3678 26.8761 31.4942 26.8811 30.7447 26.9354Z" stroke="#4FF536" stroke-width="0.5"/>
</g>
</g>
<defs>
<filter id="filter0_d_824_328" x="-0.211121" y="52.5226" width="22.5727" height="18.7413" filterUnits="userSpaceOnUse" color-interpolation-filters="sRGB">
<feFlood flood-opacity="0" result="BackgroundImageFix"/>
<feColorMatrix in="SourceAlpha" type="matrix" values="0 0 0 0 0 0 0 0 0 0 0 0 0 0 0 0 0 0 127 0" result="hardAlpha"/>
<feOffset/>
<feGaussianBlur stdDeviation="2"/>
<feColorMatrix type="matrix" values="0 0 0 0 1 0 0 0 0 1 0 0 0 0 1 0 0 0 1 0"/>
<feBlend mode="normal" in2="BackgroundImageFix" result="effect1_dropShadow_824_328"/>
<feBlend mode="normal" in="SourceGraphic" in2="effect1_dropShadow_824_328" result="shape"/>
</filter>
<filter id="filter1_d_824_328" x="14.8289" y="17.7427" width="22.5726" height="18.7413" filterUnits="userSpaceOnUse" color-interpolation-filters="sRGB">
<feFlood flood-opacity="0" result="BackgroundImageFix"/>
<feColorMatrix in="SourceAlpha" type="matrix" values="0 0 0 0 0 0 0 0 0 0 0 0 0 0 0 0 0 0 127 0" result="hardAlpha"/>
<feOffset/>
<feGaussianBlur stdDeviation="2"/>
<feColorMatrix type="matrix" values="0 0 0 0 1 0 0 0 0 1 0 0 0 0 1 0 0 0 1 0"/>
<feBlend mode="normal" in2="BackgroundImageFix" result="effect1_dropShadow_824_328"/>
<feBlend mode="normal" in="SourceGraphic" in2="effect1_dropShadow_824_328" result="shape"/>
</filter>
<clipPath id="clip0_824_328">
<rect width="94" height="60.16" fill="white" transform="translate(0 17)"/>
</clipPath>
</defs>
</svg>
